<svg width="240" height="240" xmlns="http://www.w3.org/2000/svg" xmlns:xlink="http://www.w3.org/1999/xlink"><defs><symbol id="a"><path d="M2.43591 5.14011c-.85705 2.83407-3.41915 57.80982-1.2298 60.173C3.39544 67.67627-.12843 68.8941 38.1953 69c38.32373.10589 26.1416-.98283 27.90643-2.24816 3.00396-2.15376 3.92957-1.46695 3.8954-26.26614-.02812-19.9546-.84297-31.63482-2.44655-35.03853C66.158 2.48833 59.45333 1.22645 40.41638.3389c-9.8395-.45788-11.1748-.4557-20.66264.03038-9.48783.4861-16.46078 1.93676-17.31783 4.77083z" fill="#EBAB2C"/><path d="M6 2.65813C6 3.59555 34.07178 7.8939 49.02246 17.8627 66.77375 29.6989 67.7 57.27656 67.811 57.38598c2.762 2.72254 2.094-47.44736-.706-53.0748C65.648 1.38262 41.195-.76624 21 .25989c0 0-15 1.46083-15 2.39824z" fill="#DB8323"/></symbol><symbol id="c"><use xlink:href="#a"/><use xlink:href="#a" x="80"/><use xlink:href="#a" x="160"/><use xlink:href="#a" x="240"/><use xlink:href="#a" x="320"/></symbol><mask id="b" fill="#fff"><circle cx="200" cy="200" r="186"/></mask></defs><g fill="none" fill-rule="evenodd"><circle fill="#F3CB4C" cx="200" cy="200" r="200"/><g mask="url(#b)"><use xlink:href="#c"/><use xlink:href="#c" y="80"/><use xlink:href="#c" y="160"/><use xlink:href="#c" y="240"/><use xlink:href="#c" y="320"/></g></g></svg>